PathFileType	4	(X/Y/Z)	Patient4_TMGait_0pt4_02_right_36.trc.trc
DataRate	CameraRate	NumFrames	NumMarkers	Units	OrigDataRate	OrigDataStartFrame	OrigNumFrames
75.675675675676	75.675675675676	4	33	mm	75.675675675676	106	       141
Frame#	Time	Sacral			L.Shoulder			Chest			R.Shoulder			Neck			R.ASIS			L.ASIS			R.Thigh.Superior			R.Thigh.Lateral			R.Thigh.Inferior			R.Patella			L.Thigh.Superior			L.Thigh.Lateral			L.Thigh.Inferior			L.Patella			L.Shank.Superior			L.Shank.Lateral			L.Shank.Inferior			R.Shank.Superior			R.Shank.Lateral			R.Shank.Inferior			R.Heel			R.Midfoot.Superior			R.Midfoot.Lateral			R.Toe			L.Heel			L.Midfoot.Lateral			L.Midfoot.Superior			L.Toe			L.Elbow			L.Wrist			R.Elbow			R.Wrist			
		X1	Y1	Z1	X2	Y2	Z2	X3	Y3	Z3	X4	Y4	Z4	X5	Y5	Z5	X6	Y6	Z6	X7	Y7	Z7	X8	Y8	Z8	X9	Y9	Z9	X10	Y10	Z10	X11	Y11	Z11	X12	Y12	Z12	X13	Y13	Z13	X14	Y14	Z14	X15	Y15	Z15	X16	Y16	Z16	X17	Y17	Z17	X18	Y18	Z18	X19	Y19	Z19	X20	Y20	Z20	X21	Y21	Z21	X22	Y22	Z22	X23	Y23	Z23	X24	Y24	Z24	X25	Y25	Z25	X26	Y26	Z26	X27	Y27	Z27	X28	Y28	Z28	X29	Y29	Z29	X30	Y30	Z30	X31	Y31	Z31	X32	Y32	Z32	X33	Y33	Z33	

106	48.897500000000	811.488577387088	1013.188528209679	409.216825245577	1004.163117892357	1439.943173497449	222.885547568439	1096.124534472795	1375.585022757765	391.632545138846	1000.229423307360	1448.350670948719	559.526135787324	972.216056585798	1503.130105333705	377.799458069012	1038.958918379043	955.849498063149	532.016930032284	1030.859606812624	967.293014152840	258.487776526539	1118.091657051265	781.397987405340	506.067028158001	1077.887383026158	662.242284590430	585.671424454452	1164.503951269844	618.115695870384	507.330258917705	1184.570534764468	511.586003291268	533.676770730761	1065.063790466432	747.714684245097	284.433932268436	966.351121096024	637.573852853553	226.867020454876	1047.530830468872	555.306008776784	286.420228114489	1043.376186235208	487.301121193451	296.842145086795	1015.049070498729	416.482113904635	289.660549682555	920.411540813223	304.901987548925	240.609447771881	969.707527833376	192.657784732537	312.214133216313	1118.558502101200	431.670569586182	547.359807693356	1008.997635347878	377.748112378665	617.857589217499	1007.612283341695	265.633978013568	573.139972358761	817.567249750460	172.927784683415	563.824985426212	994.530292345069	140.302681650588	587.549163708856	890.688033181552	123.207181578347	631.787048670248	1078.985681737659	41.401282961436	609.220252813928	839.227524288317	38.918809298975	360.222842068700	909.976105052383	35.005731021357	276.465851537637	994.903136736766	95.474944828384	300.774484095834	1122.387710025171	41.974634504299	267.902447693165	1090.203451005542	1123.385348672380	59.493294153999	1312.885843505413	982.214049404035	42.510055931191	899.183124460891	1115.615957288420	675.204338602208	925.460937650350	854.561484055572	676.378423940732	
107	48.910714285714	810.794148131902	1013.746781394879	408.293954920699	1005.522124634776	1440.031561379793	222.871674039265	1096.132713844964	1375.690756517354	392.321680823947	999.137741660544	1448.801993681498	559.395145836880	972.489296864030	1503.302428308450	377.671904419862	1037.466599191286	956.330680689955	532.648325969635	1031.137731540066	967.320629219827	259.087540814186	1116.827139080571	782.254106020047	506.358977371607	1077.445870136223	663.264083083595	586.333910388907	1163.278929427543	619.101389001302	507.229012791608	1184.911140632449	514.213781175972	533.728806980439	1062.957361474490	746.838765019932	286.193260117914	963.689462377368	637.635958036699	227.130687487571	1043.269335498341	554.634233920200	287.541299404579	1038.270827830644	486.887539048669	297.869326259272	1010.122262738999	416.353230288559	290.306054795446	915.699488022191	304.853192058124	240.834335235811	964.563210415324	192.567054331505	312.571687089253	1122.290166474962	432.746731792137	547.964180376833	1016.149811516477	373.587145952336	619.182068937659	1020.123139151889	261.526733467575	574.452798416668	835.118163701521	159.208371610306	565.831025930978	1013.373494325830	135.843263861771	589.280534548845	910.828201683769	113.826981472878	634.059047588437	1102.809690449302	41.702675924040	611.482811555741	833.866785954294	38.858027920716	360.224503628566	904.626074543698	34.980134370162	276.466642768460	989.546247298683	95.441617733314	300.863508954019	1117.050178220190	41.971365092805	267.906356772350	1093.366593921211	1124.870913819649	58.713302428416	1320.701247504231	991.128981214542	42.886640470353	889.959795244603	1118.835751536710	673.819699050544	908.410034379397	857.207736615295	674.942536644131	
108	48.923928571429	810.129313832989	1014.192762557742	407.446475449422	1006.961175567261	1439.961312821479	223.042251661525	1096.241922593896	1375.628163026302	393.168070464874	998.204951477994	1449.091526700385	559.439794775615	972.871546220680	1503.333451769372	377.713701299164	1035.943912980683	956.577529797585	533.480266969293	1031.466304924221	967.208129895298	259.862269291669	1115.146552512436	782.508211294966	506.926146077113	1076.199872166052	663.842037710903	587.252564875900	1161.148800326932	619.413810608037	507.416462489200	1184.191169560686	516.415000875999	533.995547294473	1060.926811558441	745.924953569519	288.023728776522	961.158008194528	637.648227256596	227.400058814427	1039.119716278857	553.942849020202	288.663208269631	1033.298758579346	486.453757105883	298.868603795513	1005.315646585603	416.178130344031	290.949342117503	911.089636405876	304.780665053335	241.046216341839	959.463279521846	192.440976111493	312.926067158270	1125.359625499211	433.567756324907	548.737235896429	1023.221700785466	368.922375862821	620.675858107389	1032.955852227002	257.261803336380	575.794487796864	853.939486119851	144.992551174820	567.733839422693	1033.048900000609	131.456260843140	590.957428635655	932.113568014223	104.283503138482	636.212546046506	1127.491276749105	42.538522297331	613.697959125180	828.519155403780	38.797075325857	360.227365440912	899.282497830680	34.949873581846	276.470255801621	984.195820229007	95.398681472130	300.961557567417	1111.720630311191	41.950176825895	267.913944321175	1096.166327509163	1126.034547830977	58.138172471908	1327.743197010729	999.661155065442	43.646094915706	881.682984494606	1121.817597194262	672.542623516267	892.734226753880	859.860192538898	673.721402997696	
109	48.937142857143	809.501866234186	1014.520816439660	406.697066809694	1008.475738707835	1439.734605406974	223.400469838024	1096.451471533160	1375.394941956193	394.173396153915	997.438330111871	1449.218639259369	559.667334252706	973.365946817024	1503.227788079129	377.924402756171	1034.407227823668	956.587775113840	534.499249629940	1031.828643717679	966.962895561557	260.797097161462	1113.042587295834	782.151070914476	507.769261958799	1074.124911569020	663.972354409193	588.427019977518	1158.143360938461	619.067746660918	507.929457535157	1182.432321962965	518.179274030026	534.481809086913	1058.996727545031	744.980276683684	289.854388010876	958.759146839837	637.610067461508	227.683077174648	1035.114728213991	553.233847940169	289.763758405517	1028.505992062552	485.999188112050	299.822695999794	1000.659572284496	415.952033979955	291.581420737785	906.589910125292	304.692167125790	241.247271391008	954.412670639193	192.278732303240	313.270635990616	1127.750445163739	434.184876565749	549.653770065421	1030.189289042931	363.921311486978	622.287467671302	1045.980102633220	253.068033533932	577.085767044221	873.887687757742	130.735103245139	569.421771970319	1053.336009563606	127.394337511716	592.444964996924	954.334315225508	94.926758121205	638.105511957818	1152.684493390520	44.092877725176	615.684339522909	823.184482285704	38.741728563876	360.227551449686	893.946118712860	34.918464307512	276.474382642539	978.852833652620	95.346382925422	301.064360377917	1106.397861789317	41.910919513357	267.923979106052	1098.631925613280	1126.863453109173	57.788083716884	1334.022406882248	1007.724884704294	44.766623309153	874.388245792510	1124.487205756864	671.413766255473	878.517114389663	862.399067442522	672.730861765727	
